# Blender v2.78 (sub 0) OBJ File: 'rubberDuck.blend'
# www.blender.org
o Icosphere_Icosphere.001
v -1.747706 1.739433 1.831872
v -1.024099 2.292213 2.357598
v -2.024094 2.292213 2.682522
v -2.642133 2.292217 1.831872
v -2.024094 2.292213 0.981223
v -1.024099 2.292213 1.306147
v -1.471318 3.186653 2.682522
v -2.961657 3.823273 2.698410
v -2.471313 3.186653 1.306147
v -1.011105 4.129473 0.850039
v -0.566893 4.147786 1.632456
v -1.679115 3.561266 1.798146
v -1.910162 1.888779 2.331868
v -1.322384 1.888779 2.140884
v -1.484837 2.213696 2.640884
v -0.897058 2.213697 1.831872
v -1.322384 1.888779 1.522861
v -2.273436 1.888781 1.831872
v -2.435896 2.213697 2.331869
v -1.910162 1.888779 1.331877
v -2.435896 2.213697 1.331875
v -1.484837 2.213696 1.022861
v -0.796648 2.739433 2.140885
v -0.632231 3.649057 1.303149
v -1.747706 2.739433 2.831872
v -1.159921 2.739433 2.640889
v -2.698764 2.739433 2.140885
v -2.335492 2.739433 2.640889
v -2.335492 2.669987 1.022856
v -2.698764 2.739433 1.522860
v -0.795306 3.645793 1.032467
v -1.706040 2.701352 0.979628
v -1.059517 3.265169 2.331869
v -1.895742 3.320599 2.875095
v -2.819828 3.336626 1.641284
v -2.002057 3.182374 1.061941
v -0.046919 4.071687 0.722263
v -1.354344 3.550961 2.180734
v -0.696174 4.560305 1.464448
v -2.173029 3.590087 2.140884
v -1.847192 3.546715 1.320992
v -0.968070 4.586003 1.110523
v -2.365941 3.022841 2.313491
vt 0.8160 0.5717
vt 0.9014 0.6098
vt 0.8066 0.6641
vt 0.9773 0.6641
vt 0.9841 0.5762
vt 0.7360 0.6098
vt 0.3018 0.5996
vt 0.2579 0.6385
vt 0.2225 0.5501
vt 0.7871 0.5220
vt 0.8893 0.5220
vt 0.6548 0.0409
vt 0.7147 0.0980
vt 0.6543 0.1301
vt 0.8160 0.7564
vt 0.9014 0.7183
vt 0.8893 0.8061
vt 0.1863 0.6931
vt 0.2579 0.7470
vt 0.1546 0.7807
vt 0.1260 0.5428
vt 0.1546 0.6050
vt 0.0648 0.5982
vt 0.6398 0.8793
vt 0.5468 0.9023
vt 0.6225 0.6341
vt 0.5734 0.0584
vt 0.7871 0.8061
vt 0.0907 0.6929
vt 0.4578 0.9100
vt 0.4041 0.8608
vt 0.4979 0.8282
vt 0.6698 0.6355
vt 0.4856 0.0987
vt 0.5549 0.1641
vt 0.4984 0.2077
vt 0.8560 0.3680
vt 0.7466 0.2228
vt 0.8560 0.1939
vt 0.2924 0.4498
vt 0.2226 0.5048
vt 0.2776 0.3342
vt 0.3333 0.1818
vt 0.3401 0.3702
vt 0.2634 0.1635
vt 0.5780 0.3740
vt 0.7147 0.4904
vt 0.5315 0.4410
vt 0.2103 0.1134
vt 0.2000 0.3003
vt 0.3723 0.0158
vt 0.1341 0.3829
vt 0.0159 0.5112
vt 0.1420 0.2405
vt 0.0324 0.3329
vt 0.4041 0.0781
vt 0.8457 0.0388
vt 0.8848 0.1623
vt 0.7466 0.0569
vt 0.8848 0.0158
vt 0.5632 0.5560
vt 0.7041 0.5220
vt 0.4476 0.7624
vt 0.3723 0.4382
vt 0.0159 0.7703
vt 0.0174 0.6923
vt 0.0523 0.9717
vt 0.8966 0.8728
vt 0.7415 0.9433
vt 0.4842 0.0158
vt 0.2225 0.8343
vt 0.3018 0.7843
vt 0.9841 0.7519
vt 0.6416 0.3488
vt 0.7041 0.9040
vt 0.6201 0.9661
vt 0.5131 0.9842
vt 0.7360 0.7183
vn 0.1024 -0.9435 0.3151
vn 0.7002 -0.6617 0.2680
vn -0.2680 -0.9435 0.1947
vn -0.2680 -0.9435 -0.1947
vn 0.1024 -0.9435 -0.3151
vn 0.9050 -0.3304 0.2680
vn 0.0247 -0.3304 0.9435
vn -0.8897 -0.3304 0.3151
vn -0.5574 -0.3780 -0.7392
vn 0.5376 -0.2535 -0.8042
vn 0.8026 -0.1256 0.5831
vn -0.3066 -0.1256 0.9435
vn -0.9921 -0.1256 0.0000
vn -0.0710 0.0513 -0.9962
vn 0.8325 -0.2415 -0.4986
vn 0.3765 0.7058 0.6002
vn 0.3947 0.9007 0.1815
vn -0.3605 0.6523 -0.6668
vn -0.5733 0.4461 -0.6872
vn 0.8015 0.4232 0.4225
vn -0.5458 0.6939 0.4697
vn 0.3947 0.8872 -0.2388
vn -0.0843 0.4998 -0.8620
vn -0.7186 0.6551 0.2332
vn -0.7498 0.5643 -0.3454
vn -0.3512 0.6371 -0.6861
vn 0.0298 0.9987 -0.0410
vn -0.2563 0.9545 -0.1524
vn -0.0298 0.9064 -0.4213
vn 0.0484 0.9987 -0.0142
vn 0.0287 0.9418 0.3349
vn 0.4736 0.6566 0.5871
vn -0.5411 0.6920 0.4779
vn 0.0901 0.5366 0.8390
vn 0.3617 0.4466 0.8184
vn 0.7740 -0.4164 0.4770
vn 0.4059 -0.8835 -0.2339
vn -0.1439 -0.4048 -0.9030
vn -0.2311 0.0242 -0.9726
vn -0.0741 0.1237 -0.9895
vn -0.4310 0.3441 -0.8342
vn -0.6925 0.0027 -0.7214
vn -0.9801 -0.1987 0.0000
vn -0.9747 -0.2216 -0.0287
vn -0.2488 -0.1941 0.9489
vn -0.3056 -0.1478 0.9406
vn 0.4234 0.0405 0.9050
vn 0.5746 0.3304 0.7488
vn 0.7947 0.1876 0.5773
vn 0.7320 0.1225 0.6702
vn 0.2861 -0.2238 -0.9317
vn 0.1014 -0.0421 -0.9940
vn 0.0686 -0.0572 -0.9960
vn -0.7957 0.1167 -0.5943
vn -0.8056 -0.2003 -0.5575
vn -0.8897 -0.3304 -0.3151
vn -0.7240 -0.4462 0.5260
vn -0.7947 -0.1876 0.5773
vn -0.5746 -0.3304 0.7488
vn 0.3066 0.1256 0.9435
vn 0.3035 -0.1876 0.9342
vn 0.5346 -0.3304 0.7779
vn 0.9882 -0.1500 0.0311
vn 0.9829 -0.1838 -0.0067
vn 0.9265 -0.2682 -0.2639
vn 0.4713 -0.6617 -0.5831
vn 0.1876 -0.7947 -0.5773
vn -0.0385 -0.6617 -0.7488
vn -0.4089 -0.6617 -0.6284
vn -0.4911 -0.7947 -0.3568
vn -0.7240 -0.6617 -0.1947
vn -0.7240 -0.6617 0.1947
vn -0.4911 -0.7947 0.3568
vn -0.4089 -0.6617 0.6284
vn 0.7002 -0.6617 -0.2680
vn 0.6071 -0.7947 0.0000
vn 0.3313 -0.9435 0.0000
vn -0.0385 -0.6617 0.7488
vn 0.1876 -0.7947 0.5773
vn 0.4713 -0.6617 0.5831
s off
f 1/1/1 14/2/1 13/3/1
f 2/4/2 14/2/2 16/5/2
f 1/1/3 13/3/3 18/6/3
f 1/7/4 18/8/4 20/9/4
f 1/1/5 20/10/5 17/11/5
f 2/12/6 16/13/6 23/14/6
f 3/15/7 15/16/7 25/17/7
f 4/18/8 19/19/8 27/20/8
f 5/21/9 21/22/9 29/23/9
f 6/24/10 22/25/10 31/26/10
f 2/12/11 23/14/11 26/27/11
f 3/15/12 25/17/12 28/28/12
f 4/18/13 27/20/13 30/29/13
f 5/30/14 29/31/14 32/32/14
f 6/24/15 31/26/15 24/33/15
f 7/34/16 33/35/16 38/36/16
f 8/37/17 34/38/17 40/39/17
f 9/40/18 35/41/18 41/42/18
f 10/43/19 36/44/19 42/45/19
f 11/46/20 37/47/20 39/48/20
f 39/49/21 42/45/21 12/50/21
f 39/49/22 37/51/22 42/45/22
f 37/51/23 10/43/23 42/45/23
f 42/45/24 41/42/24 12/50/24
f 42/45/25 36/44/25 41/42/25
f 36/44/26 9/40/26 41/42/26
f 41/42/27 40/52/27 12/50/27
f 41/42/28 35/41/28 40/52/28
f 35/41/29 8/53/29 40/52/29
f 40/52/30 38/54/30 12/50/30
f 40/52/31 34/55/31 38/54/31
f 34/56/32 7/34/32 38/36/32
f 38/54/33 39/49/33 12/50/33
f 38/36/34 33/35/34 39/48/34
f 33/35/35 11/46/35 39/48/35
f 24/57/36 37/58/36 11/59/36
f 24/57/37 31/60/37 37/58/37
f 31/26/38 10/61/38 37/62/38
f 32/32/39 36/63/39 10/61/39
f 32/32/40 29/31/40 36/63/40
f 29/64/41 9/40/41 36/44/41
f 30/29/42 35/65/42 9/66/42
f 30/29/43 27/20/43 35/65/43
f 27/20/44 8/67/44 35/65/44
f 28/28/45 34/68/45 8/69/45
f 28/28/46 25/17/46 34/68/46
f 25/70/47 7/34/47 34/56/47
f 26/27/48 33/35/48 7/34/48
f 26/27/49 23/14/49 33/35/49
f 23/14/50 11/46/50 33/35/50
f 31/26/51 32/32/51 10/61/51
f 31/26/52 22/25/52 32/32/52
f 22/25/53 5/30/53 32/32/53
f 29/23/54 30/29/54 9/66/54
f 29/23/55 21/22/55 30/29/55
f 21/22/56 4/18/56 30/29/56
f 27/20/57 28/71/57 8/67/57
f 27/20/58 19/19/58 28/71/58
f 19/19/59 3/72/59 28/71/59
f 25/70/60 26/27/60 7/34/60
f 25/17/61 15/16/61 26/73/61
f 15/16/62 2/4/62 26/73/62
f 23/14/63 24/74/63 11/46/63
f 23/14/64 16/13/64 24/74/64
f 16/75/65 6/24/65 24/33/65
f 17/76/66 22/25/66 6/24/66
f 17/76/67 20/77/67 22/25/67
f 20/77/68 5/30/68 22/25/68
f 20/9/69 21/22/69 5/21/69
f 20/9/70 18/8/70 21/22/70
f 18/8/71 4/18/71 21/22/71
f 18/8/72 19/19/72 4/18/72
f 18/6/73 13/3/73 19/78/73
f 13/3/74 3/15/74 19/78/74
f 16/75/75 17/76/75 6/24/75
f 16/5/76 14/2/76 17/11/76
f 14/2/77 1/1/77 17/11/77
f 13/3/78 15/16/78 3/15/78
f 13/3/79 14/2/79 15/16/79
f 14/2/80 2/4/80 15/16/80
