# Blender v2.78 (sub 0) OBJ File: 'rubberDuck.blend'
# www.blender.org
mtllib rubberDuck.mtl
o Icosphere_Icosphere.001
v -0.062164 -1.164075 0.055531
v 0.253132 -0.559066 0.855602
v -0.761976 -0.582615 0.582531
v -0.815075 -0.647244 -0.465600
v 0.167221 -0.663644 -0.840299
v 0.827402 -0.609143 -0.023747
v -0.304927 0.331699 0.828943
v -1.566242 0.909708 -0.008694
v -0.390837 0.227121 -0.866958
v 1.075109 1.203413 -0.510577
v 1.019748 1.276291 0.384667
v 0.001526 0.655372 -0.046818
v -0.472325 -0.997539 0.376038
v 0.124336 -0.983697 0.536544
v -0.287002 -0.641923 0.846309
v 0.647208 -0.657514 0.489947
v 0.461881 -1.013131 0.019680
v -0.503539 -1.035526 -0.240035
v -0.914879 -0.693754 0.069724
v 0.073839 -1.045166 -0.460274
v -0.368713 -0.741381 -0.766591
v 0.596713 -0.718985 -0.506875
v 0.559026 -0.114140 0.770906
v 1.148211 0.760275 0.104190
v -0.615022 -0.118345 0.830642
v -0.018355 -0.104503 0.991153
v -1.034278 -0.188370 -0.265394
v -1.003070 -0.150379 0.350685
v -0.118885 -0.296756 -0.998258
v -0.696731 -0.217804 -0.782261
v 1.159472 0.737761 -0.210832
v 0.431774 -0.242945 -0.693395
v 0.231008 0.409436 0.755235
v -0.766518 0.458000 0.750565
v -0.866815 0.379171 -0.785731
v 0.135641 0.229532 -0.815273
v 1.952931 1.177279 -0.088599
v 0.064681 0.675982 0.450718
v 1.000457 1.674981 0.148474
v -0.599586 0.681187 -0.031035
v 0.121441 0.611563 -0.536552
v 0.965835 1.673163 -0.297227
v -0.851656 0.115710 0.042939
vt 0.8160 0.5717
vt 0.9014 0.6098
vt 0.8066 0.6641
vt 0.9773 0.6641
vt 0.9841 0.5762
vt 0.7360 0.6098
vt 0.3018 0.5996
vt 0.2579 0.6385
vt 0.2225 0.5501
vt 0.7871 0.5220
vt 0.8893 0.5220
vt 0.6548 0.0409
vt 0.7147 0.0980
vt 0.6543 0.1301
vt 0.8160 0.7564
vt 0.9014 0.7183
vt 0.8893 0.8061
vt 0.1863 0.6931
vt 0.2579 0.7470
vt 0.1546 0.7807
vt 0.1260 0.5428
vt 0.1546 0.6050
vt 0.0648 0.5982
vt 0.6398 0.8793
vt 0.5468 0.9023
vt 0.6225 0.6341
vt 0.5734 0.0584
vt 0.7871 0.8061
vt 0.0907 0.6929
vt 0.4578 0.9100
vt 0.4041 0.8608
vt 0.4979 0.8282
vt 0.6698 0.6355
vt 0.4856 0.0987
vt 0.5549 0.1641
vt 0.4984 0.2077
vt 0.8560 0.3680
vt 0.7466 0.2228
vt 0.8560 0.1939
vt 0.2924 0.4498
vt 0.2226 0.5048
vt 0.2776 0.3342
vt 0.3333 0.1818
vt 0.3401 0.3702
vt 0.2634 0.1635
vt 0.5780 0.3740
vt 0.7147 0.4904
vt 0.5315 0.4410
vt 0.2103 0.1134
vt 0.2000 0.3003
vt 0.3723 0.0158
vt 0.1341 0.3829
vt 0.0159 0.5112
vt 0.1420 0.2405
vt 0.0324 0.3329
vt 0.4041 0.0781
vt 0.8457 0.0388
vt 0.8848 0.1623
vt 0.7466 0.0569
vt 0.8848 0.0158
vt 0.5632 0.5560
vt 0.7041 0.5220
vt 0.4476 0.7624
vt 0.3723 0.4382
vt 0.0159 0.7703
vt 0.0174 0.6923
vt 0.0523 0.9717
vt 0.8966 0.8728
vt 0.7415 0.9433
vt 0.4842 0.0158
vt 0.2225 0.8343
vt 0.3018 0.7843
vt 0.9841 0.7519
vt 0.6416 0.3488
vt 0.7041 0.9040
vt 0.6201 0.9661
vt 0.5131 0.9842
vt 0.7360 0.7183
vn 0.0067 -0.9981 0.0612
vn 0.1932 -0.8177 0.5422
vn -0.4035 -0.8315 0.3817
vn 0.3220 -0.3931 0.8613
vn 0.7240 -0.4848 0.4906
vn -0.4347 -0.8695 -0.2344
vn 0.1427 -0.8792 -0.4546
vn 0.5307 -0.8471 0.0253
vn 0.5889 -0.0403 0.8072
vn -0.6931 -0.4166 0.5882
vn -0.2181 -0.4759 0.8520
vn -0.4986 -0.0675 0.8641
vn -0.7462 -0.4812 -0.4599
vn -0.8460 -0.5278 0.0754
vn -0.9157 -0.2977 -0.2698
vn 0.3108 -0.4216 -0.8518
vn -0.3042 -0.5823 -0.7539
vn 0.0376 -0.0698 -0.9968
vn 0.8952 -0.4452 -0.0215
vn 0.6767 -0.4888 -0.5506
vn 0.7741 -0.4783 -0.4146
vn 0.0505 0.0615 0.9968
vn -0.8823 -0.2435 0.4027
vn -0.5755 -0.1853 -0.7964
vn 0.5449 -0.0507 -0.8369
vn 0.7894 -0.4007 0.4651
vn -0.0466 0.4529 0.8903
vn 0.0761 0.4428 0.8934
vn -0.3164 0.8349 0.4504
vn -0.7728 0.6346 0.0020
vn -0.3819 0.4766 0.7918
vn 0.0446 0.9973 -0.0586
vn -0.0589 0.3319 -0.9415
vn -0.4461 0.3692 -0.8153
vn -0.3536 0.7415 -0.5702
vn 0.3005 0.1501 -0.9419
vn 0.1776 0.2831 -0.9425
vn -0.1229 0.8816 -0.4556
vn 0.2866 0.2714 0.9188
vn 0.9998 -0.0057 -0.0163
vn -0.0601 0.9019 0.4278
vn -0.3403 0.9373 -0.0742
usemtl Material.001
s 1
f 1/1/1 14/2/2 13/3/3
f 2/4/4 14/2/2 16/5/5
f 1/1/1 13/3/3 18/6/6
f 1/7/1 18/8/6 20/9/7
f 1/1/1 20/10/7 17/11/8
f 2/12/4 16/13/5 23/14/9
f 3/15/10 15/16/11 25/17/12
f 4/18/13 19/19/14 27/20/15
f 5/21/16 21/22/17 29/23/18
f 6/24/19 22/25/20 31/26/21
f 2/12/4 23/14/9 26/27/22
f 3/15/10 25/17/12 28/28/23
f 4/18/13 27/20/15 30/29/24
f 5/30/16 29/31/18 32/32/25
f 6/24/19 31/26/21 24/33/26
f 7/34/27 33/35/28 38/36/29
f 8/37/30 34/38/31 40/39/32
f 9/40/33 35/41/34 41/42/35
f 10/43/36 36/44/37 42/45/38
f 11/46/39 37/47/40 39/48/41
f 39/49/41 42/45/38 12/50/42
f 39/49/41 37/51/40 42/45/38
f 37/51/40 10/43/36 42/45/38
f 42/45/38 41/42/35 12/50/42
f 42/45/38 36/44/37 41/42/35
f 36/44/37 9/40/33 41/42/35
f 41/42/35 40/52/32 12/50/42
f 41/42/35 35/41/34 40/52/32
f 35/41/34 8/53/30 40/52/32
f 40/52/32 38/54/29 12/50/42
f 40/52/32 34/55/31 38/54/29
f 34/56/31 7/34/27 38/36/29
f 38/54/29 39/49/41 12/50/42
f 38/36/29 33/35/28 39/48/41
f 33/35/28 11/46/39 39/48/41
f 24/57/26 37/58/40 11/59/39
f 24/57/26 31/60/21 37/58/40
f 31/26/21 10/61/36 37/62/40
f 32/32/25 36/63/37 10/61/36
f 32/32/25 29/31/18 36/63/37
f 29/64/18 9/40/33 36/44/37
f 30/29/24 35/65/34 9/66/33
f 30/29/24 27/20/15 35/65/34
f 27/20/15 8/67/30 35/65/34
f 28/28/23 34/68/31 8/69/30
f 28/28/23 25/17/12 34/68/31
f 25/70/12 7/34/27 34/56/31
f 26/27/22 33/35/28 7/34/27
f 26/27/22 23/14/9 33/35/28
f 23/14/9 11/46/39 33/35/28
f 31/26/21 32/32/25 10/61/36
f 31/26/21 22/25/20 32/32/25
f 22/25/20 5/30/16 32/32/25
f 29/23/18 30/29/24 9/66/33
f 29/23/18 21/22/17 30/29/24
f 21/22/17 4/18/13 30/29/24
f 27/20/15 28/71/23 8/67/30
f 27/20/15 19/19/14 28/71/23
f 19/19/14 3/72/10 28/71/23
f 25/70/12 26/27/22 7/34/27
f 25/17/12 15/16/11 26/73/22
f 15/16/11 2/4/4 26/73/22
f 23/14/9 24/74/26 11/46/39
f 23/14/9 16/13/5 24/74/26
f 16/75/5 6/24/19 24/33/26
f 17/76/8 22/25/20 6/24/19
f 17/76/8 20/77/7 22/25/20
f 20/77/7 5/30/16 22/25/20
f 20/9/7 21/22/17 5/21/16
f 20/9/7 18/8/6 21/22/17
f 18/8/6 4/18/13 21/22/17
f 18/8/6 19/19/14 4/18/13
f 18/6/6 13/3/3 19/78/14
f 13/3/3 3/15/10 19/78/14
f 16/75/5 17/76/8 6/24/19
f 16/5/5 14/2/2 17/11/8
f 14/2/2 1/1/1 17/11/8
f 13/3/3 15/16/11 3/15/10
f 13/3/3 14/2/2 15/16/11
f 14/2/2 2/4/4 15/16/11
l 8 43
